<svg xmlns="http://www.w3.org/2000/svg" xmlns:xlink="http://www.w3.org/1999/xlink" width="500" zoomAndPan="magnify" viewBox="0 0 375 374.999991" height="500" preserveAspectRatio="xMidYMid meet" version="1.0"><defs><g/><clipPath id="199915aa29"><path d="M 137.273438 89.675781 L 234.488281 89.675781 L 234.488281 227.925781 L 137.273438 227.925781 Z M 137.273438 89.675781 " clip-rule="nonzero"/></clipPath><clipPath id="3869a35129"><path d="M 134.117188 85.445312 L 257 85.445312 L 257 227.945312 L 134.117188 227.945312 Z M 134.117188 85.445312 " clip-rule="nonzero"/></clipPath></defs><g clip-path="url(#199915aa29)"><path fill="#ffffff" d="M 137.453125 151.058594 C 137.605469 151.035156 137.753906 151.007812 137.90625 150.996094 C 138.179688 150.96875 138.453125 150.953125 138.726562 150.953125 C 139.269531 150.957031 139.808594 151.011719 140.335938 151.117188 L 140.335938 92.703125 L 168.847656 92.703125 C 169.367188 91.671875 169.945312 90.707031 170.574219 89.816406 L 137.453125 89.816406 Z M 231.410156 225.039062 L 220.144531 225.039062 L 222.933594 227.925781 L 234.292969 227.925781 L 234.292969 167.054688 L 231.410156 167.082031 Z M 140.335938 163.878906 C 140.066406 163.949219 139.785156 164.007812 139.492188 164.039062 L 139.316406 162.242188 L 139.492188 164.039062 C 139.292969 164.058594 139.097656 164.070312 138.898438 164.070312 C 138.402344 164.070312 137.921875 164 137.453125 163.882812 L 137.453125 227.925781 L 167.875 227.925781 L 169.265625 225.039062 L 140.335938 225.039062 Z M 193.515625 225.039062 L 193.203125 227.925781 L 209.023438 227.925781 L 206.019531 225.039062 Z M 202.113281 89.816406 C 202.691406 90.523438 203.242188 91.292969 203.753906 92.109375 C 203.875 92.304688 203.992188 92.503906 204.113281 92.703125 L 231.410156 92.703125 L 231.410156 113.996094 L 234.292969 114.25 L 234.292969 89.816406 L 202.113281 89.816406 " fill-opacity="1" fill-rule="nonzero"/></g><g clip-path="url(#3869a35129)"><path fill="#ffffff" d="M 174.265625 191.386719 L 174.246094 191.386719 C 174.230469 191.382812 174.210938 191.382812 174.191406 191.382812 C 174.21875 191.382812 174.238281 191.382812 174.265625 191.386719 Z M 152.984375 141.367188 C 148.597656 138.367188 145.304688 131.398438 144.847656 122.996094 C 144.210938 111.3125 149.296875 101.285156 156.207031 100.597656 C 157.808594 100.4375 159.363281 100.800781 160.820312 101.589844 C 161.160156 101.816406 161.492188 102.0625 161.8125 102.335938 L 167.640625 102.757812 C 167.628906 102.835938 167.617188 102.914062 167.605469 102.996094 L 162.828125 103.285156 C 162.867188 103.328125 162.910156 103.371094 162.949219 103.417969 L 167.519531 103.605469 C 167.5 103.78125 167.480469 103.957031 167.460938 104.132812 L 163.925781 104.558594 C 163.941406 104.585938 163.960938 104.609375 163.980469 104.632812 L 167.394531 104.777344 C 167.359375 105.164062 167.328125 105.550781 167.304688 105.945312 L 165.136719 106.332031 C 165.183594 106.40625 165.230469 106.484375 165.273438 106.558594 L 167.269531 106.613281 C 167.242188 107.261719 167.226562 107.914062 167.230469 108.574219 L 166.417969 108.777344 C 166.449219 108.839844 166.476562 108.902344 166.503906 108.964844 L 167.234375 109.007812 C 167.242188 109.539062 167.257812 110.074219 167.289062 110.609375 C 167.472656 114.046875 168.085938 117.265625 169.023438 120.132812 C 169.5 129.527344 166.277344 137.824219 161.390625 141.023438 L 165.695312 139.335938 C 168.746094 136.515625 170.757812 131.089844 170.800781 124.882812 C 171.757812 126.882812 174.683594 132.195312 179.445312 133.9375 L 181.21875 133.238281 C 179.746094 132.902344 178.855469 132.519531 177.902344 132.03125 C 177.53125 131.832031 177.171875 131.605469 176.816406 131.363281 C 172.179688 127.820312 168.742188 120.253906 168.246094 111.195312 C 167.53125 98.117188 173.222656 86.894531 180.957031 86.125 C 182.75 85.949219 184.488281 86.355469 186.121094 87.234375 C 186.5 87.492188 186.871094 87.765625 187.234375 88.070312 L 195.738281 88.6875 L 188.367188 89.136719 C 188.414062 89.183594 188.457031 89.230469 188.5 89.28125 L 197.222656 89.644531 L 189.59375 90.5625 C 189.613281 90.589844 189.636719 90.617188 189.65625 90.644531 L 199.320312 91.046875 L 190.949219 92.542969 C 191.003906 92.628906 191.054688 92.714844 191.105469 92.800781 L 201.117188 93.074219 L 192.386719 95.28125 C 192.417969 95.351562 192.453125 95.421875 192.484375 95.492188 L 202.964844 96.113281 L 193.667969 98.667969 C 193.714844 98.8125 193.761719 98.953125 193.804688 99.101562 L 203.488281 99.535156 L 194.359375 101.191406 C 194.382812 101.289062 194.402344 101.386719 194.425781 101.484375 L 203.539062 101.992188 L 194.707031 102.867188 C 194.996094 104.457031 195.203125 106.117188 195.292969 107.828125 C 196.007812 120.90625 190.316406 132.128906 182.582031 132.894531 C 184.191406 132.738281 191.601562 133.695312 194.070312 133.453125 C 201.757812 132.6875 207.417969 121.53125 206.707031 108.535156 C 206.042969 96.347656 200.019531 86.871094 192.933594 86.363281 C 192.46875 86.328125 183.695312 85.664062 181.4375 85.523438 C 181.449219 85.523438 181.464844 85.527344 181.480469 85.527344 C 180.992188 85.492188 180.496094 85.496094 179.996094 85.542969 C 174.269531 86.113281 169.664062 92.421875 167.949219 100.964844 C 167.605469 100.890625 167.261719 100.832031 166.90625 100.808594 C 166.492188 100.777344 158.65625 100.183594 156.636719 100.058594 C 156.660156 100.058594 156.691406 100.066406 156.71875 100.066406 C 156.5625 100.054688 156.414062 100.050781 156.261719 100.046875 C 156.386719 100.046875 156.511719 100.050781 156.632812 100.058594 C 156.601562 100.054688 156.566406 100.054688 156.535156 100.050781 C 156.4375 100.046875 156.339844 100.046875 156.238281 100.046875 C 155.945312 100.039062 155.648438 100.046875 155.347656 100.078125 C 148.441406 100.761719 143.355469 110.792969 143.992188 122.476562 C 144.480469 131.414062 148.179688 138.726562 152.984375 141.367188 Z M 179.242188 99.738281 C 179.269531 99.742188 179.296875 99.75 179.316406 99.753906 C 179.332031 99.757812 179.34375 99.761719 179.355469 99.765625 C 179.316406 99.757812 179.277344 99.75 179.242188 99.738281 Z M 176.808594 103.0625 C 176.820312 103.0625 176.828125 103.066406 176.835938 103.070312 C 176.808594 103.0625 176.785156 103.058594 176.757812 103.050781 C 176.777344 103.054688 176.796875 103.058594 176.808594 103.0625 Z M 181.21875 119.828125 C 184.515625 119.503906 186.941406 114.71875 186.636719 109.140625 C 186.351562 103.914062 183.769531 99.851562 180.730469 99.632812 C 180.53125 99.617188 178.929688 99.550781 178.148438 99.644531 C 178.15625 99.648438 178.175781 99.648438 178.1875 99.648438 C 178.140625 99.652344 178.09375 99.648438 178.046875 99.65625 C 175.8125 99.878906 173.972656 102.144531 173.109375 105.316406 C 172.410156 106.671875 172.03125 108.496094 172.140625 110.464844 C 172.246094 112.4375 172.828125 114.171875 173.667969 115.371094 C 174.449219 117.292969 175.589844 118.75 176.910156 119.476562 C 175.882812 118.773438 174.980469 117.605469 174.300781 116.128906 C 174.566406 116.390625 174.84375 116.601562 175.136719 116.761719 C 173.679688 115.765625 172.578125 113.441406 172.425781 110.636719 C 172.210938 106.738281 173.910156 103.394531 176.210938 103.164062 C 176.746094 103.113281 177.261719 103.234375 177.746094 103.496094 C 179.222656 104.484375 180.332031 106.816406 180.488281 109.632812 C 180.699219 113.53125 179.003906 116.875 176.699219 117.105469 C 177.175781 117.058594 177.394531 117.082031 178.128906 117.011719 C 180.421875 116.78125 182.109375 113.457031 181.894531 109.582031 C 181.699219 105.953125 179.902344 103.128906 177.789062 102.976562 C 177.652344 102.964844 176.542969 102.921875 175.996094 102.988281 C 176.003906 102.988281 176.015625 102.988281 176.023438 102.988281 C 175.992188 102.992188 175.960938 102.988281 175.925781 102.992188 C 175.246094 103.0625 174.621094 103.402344 174.078125 103.945312 C 175.0625 101.644531 176.625 100.089844 178.460938 99.90625 C 179.21875 99.832031 179.957031 100 180.652344 100.371094 C 182.78125 101.789062 184.386719 105.148438 184.605469 109.214844 C 184.917969 114.824219 182.472656 119.636719 179.15625 119.964844 C 179.847656 119.898438 180.160156 119.933594 181.21875 119.828125 Z M 179.234375 119.011719 C 179.25 119.011719 179.265625 119.011719 179.28125 119.007812 C 182.242188 118.714844 184.417969 114.289062 184.132812 109.125 C 183.851562 103.957031 181.222656 100.007812 178.261719 100.304688 C 177.398438 100.390625 176.597656 100.828125 175.910156 101.539062 C 176.542969 100.960938 177.253906 100.601562 178.023438 100.523438 C 180.957031 100.234375 183.558594 104.140625 183.839844 109.253906 C 184.109375 114.253906 182.0625 118.546875 179.234375 119.011719 Z M 226.808594 142.070312 L 250.910156 129.453125 L 226.414062 139.117188 L 249.667969 126.273438 L 224.539062 137.859375 L 251.507812 121.992188 C 252.027344 122.867188 252.371094 123.832031 252.472656 124.832031 L 253.632812 136.554688 Z M 226.976562 164.144531 C 223.542969 163.847656 220.464844 160.839844 220.132812 157.464844 L 216.59375 121.714844 C 216.261719 118.339844 218.792969 115.820312 222.226562 116.121094 L 245.628906 118.15625 C 245.832031 118.171875 246.039062 118.199219 246.242188 118.238281 C 246.324219 118.253906 246.402344 118.273438 246.484375 118.292969 C 246.601562 118.316406 246.71875 118.34375 246.832031 118.375 C 246.941406 118.402344 247.046875 118.441406 247.152344 118.472656 C 247.238281 118.503906 247.324219 118.527344 247.410156 118.558594 C 247.53125 118.605469 247.652344 118.65625 247.773438 118.707031 C 247.835938 118.734375 247.894531 118.761719 247.957031 118.789062 C 248.09375 118.851562 248.226562 118.917969 248.355469 118.988281 C 248.398438 119.011719 248.441406 119.03125 248.484375 119.054688 C 248.625 119.136719 248.769531 119.21875 248.90625 119.308594 C 248.933594 119.324219 248.957031 119.34375 248.984375 119.359375 C 249.132812 119.457031 249.277344 119.558594 249.417969 119.667969 C 249.433594 119.675781 249.441406 119.683594 249.453125 119.695312 C 249.605469 119.808594 249.753906 119.929688 249.898438 120.054688 C 248.898438 119.410156 247.769531 118.984375 246.59375 118.882812 L 223.1875 116.847656 C 219.761719 116.550781 217.226562 119.066406 217.558594 122.441406 L 219.074219 137.746094 L 220.988281 137.914062 C 222.425781 138.039062 223.710938 139.292969 223.847656 140.707031 L 225.234375 154.695312 C 225.285156 155.230469 225.167969 155.707031 224.921875 156.09375 C 229.015625 157.398438 244.796875 162.425781 249.582031 163.929688 Z M 213.007812 157.167969 C 209.964844 155.765625 210.261719 152.929688 210.261719 152.929688 C 210.261719 152.929688 208.898438 139.144531 208.691406 137.035156 C 208.558594 135.734375 208.949219 134.480469 209.265625 133.710938 L 211.914062 153.875 L 209.90625 132.40625 L 210.761719 130.769531 L 213.925781 154.859375 L 211.539062 129.285156 L 212.972656 126.542969 L 216.996094 157.195312 L 213.957031 124.65625 L 215.691406 121.335938 L 219.347656 158.316406 C 219.417969 159.015625 219.605469 159.703125 219.878906 160.351562 C 218.164062 159.554688 215.113281 158.140625 213.007812 157.167969 Z M 202.527344 162.65625 C 201.296875 162.648438 200.09375 162.355469 198.960938 161.824219 C 199.96875 162.25 201.03125 162.488281 202.113281 162.492188 C 206.144531 162.511719 209.273438 159.34375 210.160156 154.886719 C 210.277344 155.265625 210.414062 155.589844 210.554688 155.859375 C 209.390625 159.894531 206.355469 162.671875 202.527344 162.65625 Z M 208.1875 179.863281 L 209.03125 181.171875 C 208.949219 181.226562 208.855469 181.257812 208.753906 181.257812 C 208.398438 181.257812 208.074219 180.894531 208.03125 180.453125 C 208.011719 180.21875 208.070312 180.007812 208.1875 179.863281 Z M 208.597656 179.652344 C 208.953125 179.652344 209.277344 180.015625 209.316406 180.457031 C 209.335938 180.644531 209.300781 180.8125 209.226562 180.949219 L 208.414062 179.691406 C 208.472656 179.667969 208.53125 179.652344 208.597656 179.652344 Z M 204.460938 171.335938 C 203.832031 172.386719 200.789062 177.410156 200.789062 177.410156 C 200.789062 177.410156 200.402344 178.175781 199.972656 178.226562 C 199.542969 178.28125 198.832031 177.554688 198.832031 177.554688 C 198.832031 177.554688 195.496094 173.59375 193.429688 171.234375 C 191.363281 168.875 194.167969 169.414062 194.167969 169.414062 L 203.707031 169.820312 C 203.707031 169.820312 205.421875 169.738281 204.460938 171.335938 Z M 190.703125 181.839844 L 189.789062 180.421875 C 189.851562 180.394531 189.917969 180.378906 189.996094 180.378906 C 190.394531 180.378906 190.757812 180.785156 190.804688 181.285156 C 190.824219 181.496094 190.785156 181.683594 190.703125 181.839844 Z M 190.167969 182.183594 C 189.769531 182.183594 189.40625 181.777344 189.355469 181.277344 C 189.332031 181.011719 189.402344 180.777344 189.53125 180.613281 L 190.480469 182.089844 C 190.390625 182.148438 190.285156 182.1875 190.167969 182.183594 Z M 185.777344 151.574219 C 185.148438 145.019531 188.367188 139.570312 193.210938 138.378906 C 193.339844 138.351562 193.59375 138.289062 193.925781 138.214844 C 190.445312 140.664062 188.378906 145.328125 188.890625 150.671875 C 189.578125 157.8125 194.621094 163.71875 200.570312 164.746094 C 199.972656 164.871094 199.449219 164.972656 199.148438 165.019531 C 198.730469 165.078125 198.304688 165.113281 197.863281 165.109375 C 191.90625 165.082031 186.492188 159.023438 185.777344 151.574219 Z M 184.628906 135.410156 C 184.601562 135.148438 184.671875 134.914062 184.800781 134.75 L 185.75 136.222656 C 185.65625 136.28125 185.550781 136.320312 185.4375 136.320312 C 185.035156 136.316406 184.675781 135.914062 184.628906 135.410156 Z M 185.261719 134.511719 C 185.664062 134.515625 186.027344 134.921875 186.074219 135.417969 C 186.09375 135.628906 186.050781 135.820312 185.972656 135.972656 L 185.054688 134.554688 C 185.121094 134.527344 185.191406 134.511719 185.261719 134.511719 Z M 198.984375 137.195312 C 199.128906 137.175781 199.277344 137.164062 199.425781 137.15625 C 193.808594 137.550781 189.886719 143.394531 190.578125 150.566406 C 191.292969 158.015625 196.707031 164.074219 202.664062 164.101562 C 203.210938 164.101562 203.742188 164.050781 204.261719 163.957031 C 204.230469 163.960938 204.199219 163.96875 204.167969 163.976562 C 203.867188 164.027344 202.40625 164.355469 201.097656 164.636719 C 195.136719 163.671875 190.054688 157.777344 189.371094 150.632812 C 188.84375 145.167969 191.03125 140.421875 194.675781 138.050781 C 196.152344 137.726562 198.25 137.285156 198.984375 137.195312 Z M 197.5 154.875 C 197.222656 152.964844 197.808594 151.304688 198.914062 150.402344 C 199.089844 150.347656 199.273438 150.289062 199.460938 150.230469 C 198.324219 151.179688 197.667969 152.796875 197.847656 154.625 C 198.109375 157.371094 200.136719 159.617188 202.480469 159.867188 C 202.296875 159.921875 202.105469 159.984375 201.914062 160.046875 C 199.800781 159.707031 197.886719 157.523438 197.5 154.875 Z M 197.714844 150.773438 C 197.734375 150.769531 197.773438 150.757812 197.824219 150.742188 C 196.714844 151.644531 196.125 153.308594 196.402344 155.222656 C 196.789062 157.867188 198.703125 160.054688 200.816406 160.390625 C 200.367188 160.535156 200.023438 160.632812 199.917969 160.648438 C 199.761719 160.671875 199.605469 160.683594 199.441406 160.683594 C 197.234375 160.671875 195.226562 158.425781 194.960938 155.664062 C 194.726562 153.234375 195.921875 151.214844 197.714844 150.773438 Z M 194.632812 145.226562 C 194.933594 147.296875 196.429688 149.007812 198.082031 149.273438 C 197.730469 149.378906 197.460938 149.460938 197.378906 149.472656 C 197.257812 149.488281 197.132812 149.5 197.007812 149.496094 C 195.277344 149.492188 193.710938 147.734375 193.503906 145.574219 C 193.320312 143.675781 194.253906 142.09375 195.65625 141.75 C 195.671875 141.746094 195.699219 141.738281 195.738281 141.726562 C 194.871094 142.429688 194.410156 143.734375 194.632812 145.226562 Z M 202.851562 144.636719 C 202.960938 145.792969 202.65625 146.824219 202.089844 147.539062 C 202.097656 147.804688 202.117188 148.082031 202.160156 148.359375 C 202.210938 148.703125 202.285156 149.039062 202.378906 149.363281 C 202.226562 149.34375 202.070312 149.332031 201.914062 149.335938 C 201.484375 149.335938 201.078125 149.410156 200.699219 149.539062 C 200.648438 149.3125 200.609375 149.082031 200.585938 148.84375 C 200.574219 148.722656 200.570312 148.605469 200.566406 148.488281 C 200.554688 148.492188 200.546875 148.496094 200.53125 148.496094 C 200.457031 148.507812 199.699219 148.757812 198.941406 149 C 197.285156 148.734375 195.789062 147.023438 195.488281 144.957031 C 195.269531 143.464844 195.730469 142.164062 196.59375 141.460938 C 197.519531 141.167969 198.824219 140.757812 199.03125 140.734375 C 199.132812 140.71875 199.238281 140.714844 199.34375 140.714844 C 200.863281 140.722656 202.257812 142.078125 202.714844 143.867188 C 202.988281 143.710938 203.28125 143.585938 203.59375 143.507812 C 203.613281 143.503906 203.652344 143.492188 203.707031 143.476562 C 203.367188 143.753906 203.070312 144.097656 202.832031 144.492188 C 202.835938 144.542969 202.84375 144.589844 202.851562 144.636719 Z M 207.15625 141.914062 C 206.902344 142.417969 206.695312 142.96875 206.539062 143.550781 C 205.660156 144.445312 205.164062 145.878906 205.320312 147.5 C 205.503906 149.414062 206.539062 151.070312 207.890625 151.894531 C 208.222656 152.425781 208.597656 152.914062 209.003906 153.355469 C 208.738281 153.441406 208.457031 153.53125 208.171875 153.621094 C 207.636719 153.535156 207.109375 153.335938 206.613281 153.050781 C 206.710938 153.347656 206.792969 153.65625 206.847656 153.972656 C 206.890625 153.980469 206.929688 153.992188 206.976562 154 C 206.933594 154.015625 206.894531 154.027344 206.855469 154.035156 C 206.882812 154.179688 206.902344 154.320312 206.914062 154.464844 C 207.15625 156.988281 205.863281 159.070312 203.953125 159.402344 C 203.882812 159.414062 203.316406 159.597656 202.632812 159.816406 C 200.304688 159.570312 198.285156 157.339844 198.027344 154.613281 C 197.746094 151.714844 199.558594 149.359375 202.066406 149.351562 C 202.171875 149.351562 202.277344 149.359375 202.382812 149.367188 C 202.390625 149.394531 202.398438 149.425781 202.40625 149.453125 C 202.414062 149.453125 202.421875 149.449219 202.433594 149.449219 C 202.921875 149.453125 203.402344 149.570312 203.855469 149.773438 C 203.621094 149.207031 203.449219 148.609375 203.355469 147.980469 C 203.050781 145.898438 203.691406 144.085938 204.898438 143.101562 C 205.484375 142.917969 206.175781 142.699219 206.789062 142.515625 C 204.894531 140.410156 202.4375 139.101562 199.867188 139.089844 C 196.488281 139.074219 193.742188 141.296875 192.417969 144.644531 C 193.722656 141.007812 196.617188 138.558594 200.210938 138.578125 C 202.78125 138.585938 205.230469 139.855469 207.15625 141.914062 Z M 203.914062 135.703125 L 204.757812 137.011719 C 204.679688 137.066406 204.585938 137.101562 204.480469 137.101562 C 204.125 137.097656 203.804688 136.738281 203.761719 136.292969 C 203.738281 136.058594 203.800781 135.847656 203.914062 135.703125 Z M 204.328125 135.492188 C 204.683594 135.492188 205.003906 135.855469 205.046875 136.296875 C 205.066406 136.484375 205.027344 136.652344 204.957031 136.792969 L 204.144531 135.53125 C 204.199219 135.507812 204.261719 135.492188 204.328125 135.492188 Z M 207.980469 142.164062 C 208.132812 142.125 208.242188 142.097656 208.296875 142.089844 C 208.441406 142.070312 208.589844 142.0625 208.738281 142.066406 C 208.742188 142.066406 208.746094 142.066406 208.75 142.066406 L 208.800781 142.582031 C 208.273438 143.839844 208.039062 145.339844 208.191406 146.949219 C 208.347656 148.582031 208.882812 150.105469 209.671875 151.382812 L 209.839844 153.089844 C 208.457031 151.511719 207.496094 149.363281 207.265625 146.992188 C 207.09375 145.203125 207.371094 143.542969 207.980469 142.164062 Z M 208.640625 140.96875 L 208.730469 141.902344 C 208.609375 141.742188 208.480469 141.582031 208.351562 141.429688 C 208.445312 141.269531 208.539062 141.117188 208.640625 140.96875 Z M 256.742188 159.222656 L 253.265625 124.089844 C 252.917969 120.550781 249.6875 117.402344 246.089844 117.085938 L 221.542969 114.953125 C 218.546875 114.691406 216.210938 116.484375 215.710938 119.132812 C 214.8125 120.953125 212.949219 124.707031 211.402344 127.84375 L 211.398438 127.808594 L 211.308594 128.035156 C 210.488281 129.691406 209.769531 131.164062 209.34375 132.046875 C 207.804688 135.242188 208.191406 136.421875 208.191406 136.421875 C 208.191406 136.421875 208.335938 137.902344 208.542969 140.003906 C 208.285156 140.253906 208.039062 140.53125 207.816406 140.832031 C 207.183594 140.15625 206.492188 139.5625 205.769531 139.050781 C 205.8125 139.085938 205.859375 139.109375 205.902344 139.144531 L 205.46875 134.777344 L 183.398438 133.304688 L 188.324219 183.132812 L 210.132812 181.921875 L 208.171875 162.089844 C 208.15625 162.101562 208.140625 162.113281 208.125 162.125 C 209.625 160.882812 210.789062 159.121094 211.492188 157.019531 C 211.570312 157.078125 211.621094 157.105469 211.621094 157.105469 L 221.652344 162.957031 C 222.964844 164.265625 224.695312 165.160156 226.527344 165.320312 L 250.839844 165.089844 C 254.433594 165.402344 257.089844 162.761719 256.742188 159.222656 Z M 155.40625 179.246094 C 155.402344 179.246094 155.402344 179.246094 155.398438 179.242188 C 155.394531 179.242188 155.390625 179.242188 155.382812 179.242188 C 155.390625 179.242188 155.394531 179.246094 155.40625 179.246094 Z M 176.8125 102.941406 C 176.800781 102.941406 176.789062 102.941406 176.777344 102.941406 C 176.742188 102.9375 176.707031 102.9375 176.667969 102.9375 C 176.714844 102.9375 176.761719 102.9375 176.8125 102.941406 Z M 174.929688 194.871094 C 174.875 193.910156 174.371094 193.175781 173.804688 193.234375 C 173.636719 193.25 173.484375 193.332031 173.355469 193.464844 L 174.441406 196.488281 C 174.765625 196.167969 174.964844 195.558594 174.929688 194.871094 Z M 172.871094 195.078125 C 172.921875 196.039062 173.425781 196.773438 173.996094 196.71875 C 174.085938 196.707031 174.175781 196.679688 174.257812 196.628906 L 173.191406 193.667969 C 172.96875 194.011719 172.839844 194.519531 172.871094 195.078125 Z M 156.980469 186.722656 C 156.992188 186.722656 157.003906 186.722656 157.011719 186.722656 C 158.867188 186.539062 160.226562 183.765625 160.050781 180.535156 C 159.871094 177.300781 158.226562 174.828125 156.371094 175.015625 C 155.832031 175.066406 155.332031 175.34375 154.902344 175.785156 C 155.296875 175.425781 155.742188 175.199219 156.222656 175.152344 C 158.058594 174.96875 159.6875 177.414062 159.863281 180.617188 C 160.035156 183.742188 158.75 186.433594 156.980469 186.722656 Z M 155.09375 180.46875 C 155.089844 180.46875 155.085938 180.464844 155.085938 180.464844 C 155.085938 180.464844 155.089844 180.46875 155.09375 180.46875 Z M 155.359375 179.210938 C 155.371094 179.210938 155.386719 179.210938 155.398438 179.214844 C 155.394531 179.214844 155.390625 179.210938 155.390625 179.210938 C 155.378906 179.210938 155.371094 179.210938 155.359375 179.210938 Z M 156.203125 178.257812 L 156.191406 178.257812 C 156.175781 178.257812 156.160156 178.257812 156.148438 178.257812 C 156.167969 178.257812 156.1875 178.257812 156.203125 178.257812 Z M 156.0625 178.367188 C 156.070312 178.371094 156.074219 178.371094 156.078125 178.371094 C 156.050781 178.363281 156.027344 178.363281 156 178.355469 C 156.027344 178.359375 156.046875 178.363281 156.0625 178.367188 Z M 154.28125 181.195312 C 154.339844 182.332031 154.8125 183.261719 155.425781 183.597656 C 154.867188 183.21875 154.445312 182.328125 154.386719 181.261719 C 154.308594 179.773438 154.957031 178.496094 155.835938 178.40625 C 156.039062 178.386719 156.238281 178.433594 156.421875 178.535156 C 156.984375 178.914062 157.40625 179.800781 157.46875 180.878906 C 157.546875 182.363281 156.898438 183.640625 156.019531 183.730469 C 156.203125 183.710938 156.285156 183.71875 156.566406 183.691406 C 157.441406 183.605469 158.085938 182.335938 158.003906 180.859375 C 157.929688 179.472656 157.242188 178.394531 156.4375 178.335938 C 156.382812 178.332031 155.960938 178.3125 155.753906 178.339844 C 155.761719 178.339844 155.777344 178.339844 155.789062 178.339844 C 155.769531 178.34375 155.746094 178.339844 155.726562 178.34375 C 154.847656 178.429688 154.199219 179.707031 154.28125 181.195312 Z M 157.261719 180.886719 C 157.335938 182.210938 156.792969 183.351562 156.039062 183.476562 C 156.046875 183.476562 156.046875 183.476562 156.054688 183.476562 C 156.839844 183.398438 157.414062 182.222656 157.34375 180.851562 C 157.265625 179.484375 156.566406 178.433594 155.78125 178.511719 C 155.554688 178.535156 155.34375 178.652344 155.160156 178.839844 C 155.328125 178.6875 155.515625 178.59375 155.71875 178.570312 C 156.5 178.496094 157.1875 179.53125 157.261719 180.886719 Z M 202.683594 157.914062 C 201.292969 157.90625 200.03125 156.492188 199.867188 154.753906 C 199.699219 153.015625 200.6875 151.613281 202.082031 151.621094 C 203.472656 151.625 204.734375 153.039062 204.902344 154.777344 C 205.070312 156.515625 204.078125 157.917969 202.683594 157.914062 Z M 202.480469 149.933594 C 200.484375 149.925781 199.0625 151.941406 199.300781 154.433594 C 199.542969 156.925781 201.351562 158.953125 203.347656 158.964844 C 205.34375 158.972656 206.765625 156.957031 206.527344 154.464844 C 206.285156 151.972656 204.476562 149.945312 202.480469 149.933594 Z M 168.167969 120.074219 C 167.574219 109.183594 162.03125 100.855469 155.785156 101.476562 C 153.960938 101.65625 152.28125 102.589844 150.828125 104.078125 C 152.15625 102.859375 153.664062 102.101562 155.285156 101.941406 C 161.464844 101.328125 166.953125 109.570312 167.542969 120.347656 C 168.117188 130.886719 163.796875 139.941406 157.832031 140.921875 C 157.867188 140.917969 157.902344 140.917969 157.9375 140.917969 C 164.183594 140.296875 168.761719 130.964844 168.167969 120.074219 Z M 175.628906 107.667969 C 175.636719 107.667969 175.644531 107.667969 175.648438 107.671875 C 175.652344 107.671875 175.65625 107.671875 175.65625 107.671875 C 175.648438 107.671875 175.640625 107.667969 175.628906 107.667969 Z M 175.613281 112.648438 C 175.78125 112.632812 175.855469 112.640625 176.117188 112.613281 C 176.929688 112.535156 177.527344 111.355469 177.453125 109.984375 C 177.382812 108.695312 176.746094 107.695312 176 107.640625 C 175.949219 107.636719 175.554688 107.621094 175.363281 107.644531 C 175.363281 107.644531 175.367188 107.644531 175.371094 107.644531 C 175.359375 107.644531 175.347656 107.644531 175.335938 107.644531 C 174.519531 107.726562 173.917969 108.914062 173.996094 110.292969 C 174.050781 111.351562 174.488281 112.214844 175.058594 112.527344 C 174.539062 112.171875 174.148438 111.347656 174.097656 110.355469 C 174.019531 108.976562 174.621094 107.789062 175.4375 107.707031 C 175.625 107.6875 175.8125 107.730469 175.980469 107.824219 C 176.503906 108.175781 176.898438 109 176.953125 110 C 177.027344 111.382812 176.429688 112.566406 175.613281 112.648438 Z M 155.03125 112.402344 C 155.09375 112.402344 155.15625 112.402344 155.214844 112.40625 C 155.203125 112.40625 155.1875 112.402344 155.175781 112.402344 C 155.128906 112.402344 155.078125 112.402344 155.03125 112.402344 Z M 199.542969 147.332031 C 198.453125 147.328125 197.46875 146.222656 197.335938 144.863281 C 197.207031 143.503906 197.980469 142.40625 199.066406 142.414062 C 200.15625 142.417969 201.144531 143.519531 201.273438 144.878906 C 201.40625 146.238281 200.628906 147.335938 199.542969 147.332031 Z M 199.382812 141.09375 C 197.824219 141.085938 196.707031 142.660156 196.894531 144.613281 C 197.082031 146.5625 198.5 148.148438 200.0625 148.152344 C 201.621094 148.160156 202.734375 146.585938 202.546875 144.636719 C 202.359375 142.6875 200.941406 141.101562 199.382812 141.09375 Z M 202.273438 171.335938 L 195.554688 171.050781 C 195.554688 171.050781 193.582031 170.671875 195.035156 172.335938 C 196.492188 173.996094 198.84375 176.785156 198.84375 176.785156 C 198.84375 176.785156 199.339844 177.296875 199.644531 177.257812 C 199.945312 177.222656 200.222656 176.683594 200.222656 176.683594 C 200.222656 176.683594 202.367188 173.144531 202.804688 172.40625 C 203.484375 171.277344 202.273438 171.335938 202.273438 171.335938 Z M 219.519531 142.265625 L 220.453125 151.695312 C 221.078125 150.371094 221.363281 148.753906 221.195312 147.007812 C 221.027344 145.238281 220.417969 143.601562 219.519531 142.265625 Z M 151.351562 124.417969 C 151.503906 124.40625 151.570312 124.414062 151.800781 124.390625 C 152.519531 124.320312 153.046875 123.277344 152.980469 122.0625 C 152.921875 120.925781 152.355469 120.039062 151.695312 119.992188 C 151.652344 119.988281 151.304688 119.976562 151.132812 119.996094 C 151.132812 119.996094 151.140625 119.996094 151.144531 119.996094 C 151.132812 119.996094 151.121094 119.996094 151.109375 119.996094 C 150.390625 120.070312 149.855469 121.117188 149.925781 122.339844 C 149.972656 123.273438 150.359375 124.035156 150.863281 124.3125 C 150.40625 124 150.0625 123.269531 150.011719 122.394531 C 149.945312 121.171875 150.476562 120.125 151.199219 120.050781 C 151.367188 120.035156 151.527344 120.074219 151.679688 120.152344 C 152.140625 120.464844 152.492188 121.195312 152.539062 122.078125 C 152.605469 123.300781 152.074219 124.347656 151.351562 124.417969 Z M 181.417969 86.425781 C 181.292969 86.417969 181.167969 86.417969 181.042969 86.417969 C 181.203125 86.421875 181.363281 86.421875 181.527344 86.433594 C 181.488281 86.429688 181.449219 86.425781 181.417969 86.425781 Z M 174.9375 90.023438 C 176.425781 88.660156 178.109375 87.8125 179.925781 87.632812 C 186.839844 86.945312 192.984375 96.167969 193.644531 108.230469 C 194.285156 120.023438 189.453125 130.15625 182.777344 131.253906 C 182.816406 131.25 182.855469 131.253906 182.894531 131.25 C 189.882812 130.554688 195.007812 120.109375 194.34375 107.921875 C 193.679688 95.734375 187.472656 86.417969 180.484375 87.113281 C 178.441406 87.316406 176.5625 88.355469 174.9375 90.023438 Z M 179.847656 99.34375 C 179.832031 99.34375 179.816406 99.339844 179.804688 99.339844 C 179.75 99.335938 179.695312 99.335938 179.644531 99.335938 C 179.710938 99.335938 179.78125 99.335938 179.847656 99.34375 Z M 154.667969 112.757812 C 154.695312 112.765625 154.722656 112.769531 154.742188 112.773438 C 154.753906 112.777344 154.765625 112.78125 154.777344 112.785156 C 154.742188 112.777344 154.707031 112.769531 154.667969 112.757812 Z M 152.5 115.730469 C 152.507812 115.730469 152.515625 115.734375 152.523438 115.734375 C 152.5 115.730469 152.476562 115.726562 152.453125 115.71875 C 152.472656 115.722656 152.488281 115.726562 152.5 115.730469 Z M 156.441406 130.710938 C 159.386719 130.417969 161.554688 126.144531 161.285156 121.160156 C 161.027344 116.492188 158.71875 112.859375 156.003906 112.664062 C 155.824219 112.652344 154.398438 112.59375 153.699219 112.675781 C 153.703125 112.675781 153.722656 112.679688 153.734375 112.679688 C 153.691406 112.683594 153.648438 112.683594 153.605469 112.6875 C 151.605469 112.886719 149.964844 114.914062 149.191406 117.75 C 148.570312 118.960938 148.230469 120.589844 148.328125 122.34375 C 148.421875 124.109375 148.941406 125.65625 149.695312 126.730469 C 150.394531 128.445312 151.414062 129.75 152.59375 130.394531 C 151.671875 129.765625 150.871094 128.726562 150.261719 127.410156 C 150.496094 127.640625 150.746094 127.828125 151.007812 127.972656 C 150.699219 127.761719 150.410156 127.484375 150.144531 127.152344 C 150.128906 127.113281 150.109375 127.074219 150.089844 127.03125 C 149.941406 126.855469 149.804688 126.660156 149.671875 126.453125 C 149.070312 125.410156 148.667969 124.035156 148.582031 122.5 C 148.394531 119.015625 149.910156 116.027344 151.96875 115.824219 C 152.441406 115.773438 152.90625 115.882812 153.339844 116.117188 C 154.65625 117 155.648438 119.082031 155.785156 121.601562 C 155.976562 125.085938 154.460938 128.074219 152.402344 128.277344 C 152.828125 128.234375 153.023438 128.257812 153.679688 128.191406 C 155.726562 127.988281 157.234375 125.019531 157.046875 121.558594 C 156.867188 118.3125 155.261719 115.789062 153.378906 115.652344 C 153.253906 115.644531 152.261719 115.605469 151.773438 115.660156 C 151.78125 115.660156 151.792969 115.660156 151.800781 115.664062 C 151.769531 115.664062 151.742188 115.664062 151.710938 115.667969 C 151.101562 115.730469 150.542969 116.039062 150.054688 116.53125 C 150.933594 114.46875 152.332031 113.074219 153.972656 112.910156 C 154.65625 112.84375 155.316406 112.996094 155.9375 113.324219 C 157.835938 114.59375 159.269531 117.597656 159.46875 121.226562 C 159.742188 126.238281 157.558594 130.539062 154.597656 130.835938 C 155.214844 130.773438 155.492188 130.804688 156.441406 130.710938 Z M 173.316406 131.628906 L 175.078125 133.679688 C 175.078125 133.679688 175.59375 134.191406 174.875 134.5 C 174.15625 134.808594 171.996094 135.726562 171.996094 135.726562 C 171.996094 135.726562 171.382812 135.996094 171.691406 135.0625 C 172.007812 134.132812 172.785156 131.808594 172.785156 131.808594 C 172.785156 131.808594 172.867188 131.136719 173.316406 131.628906 Z M 171.726562 130.59375 C 171.726562 130.59375 170.578125 134.28125 170.066406 135.808594 C 169.554688 137.328125 170.5625 136.890625 170.5625 136.890625 C 170.5625 136.890625 174.09375 135.390625 175.273438 134.886719 C 176.449219 134.378906 175.609375 133.539062 175.609375 133.539062 L 172.726562 130.183594 C 171.984375 129.382812 171.726562 130.59375 171.726562 130.59375 Z M 154.667969 129.980469 C 154.679688 129.980469 154.695312 129.980469 154.710938 129.980469 C 157.355469 129.714844 159.296875 125.761719 159.046875 121.148438 C 158.796875 116.53125 156.445312 113.003906 153.796875 113.265625 C 153.023438 113.34375 152.3125 113.734375 151.699219 114.367188 C 152.261719 113.851562 152.898438 113.527344 153.585938 113.460938 C 156.203125 113.203125 158.53125 116.695312 158.78125 121.261719 C 159.023438 125.730469 157.195312 129.566406 154.667969 129.980469 Z M 150.363281 149.523438 C 150.367188 149.523438 150.371094 149.523438 150.375 149.527344 C 150.363281 149.523438 150.351562 149.519531 150.339844 149.515625 C 150.347656 149.519531 150.355469 149.519531 150.363281 149.523438 Z M 139.894531 156.003906 L 148.027344 152.964844 C 148.027344 153.046875 148.027344 153.128906 148.035156 153.214844 C 148.039062 153.355469 148.054688 153.492188 148.070312 153.628906 Z M 141.316406 159.765625 C 140.035156 159.894531 138.859375 158.613281 138.691406 156.90625 C 138.671875 156.683594 138.667969 156.46875 138.679688 156.257812 C 138.273438 156.105469 137.296875 155.792969 136.359375 155.851562 C 136.808594 155.550781 138.246094 155.503906 138.804688 155.496094 C 138.8125 155.460938 138.820312 155.425781 138.832031 155.390625 C 138.476562 155.234375 137.609375 154.945312 135.953125 154.976562 C 136.773438 154.597656 138.558594 154.574219 139.207031 154.578125 C 139.21875 154.554688 139.234375 154.53125 139.25 154.507812 C 138.8125 154.34375 137.644531 153.960938 136.316406 154.023438 C 137.808594 153.542969 139.203125 153.867188 139.699219 154.019531 C 139.992188 153.777344 140.328125 153.621094 140.703125 153.585938 C 140.929688 153.5625 141.148438 153.589844 141.359375 153.648438 C 141.148438 153.722656 141.023438 153.769531 141.003906 153.773438 C 139.863281 154.054688 139.089844 155.203125 139.242188 156.746094 C 139.394531 158.390625 140.503906 159.507812 141.792969 159.648438 C 141.640625 159.707031 141.484375 159.75 141.316406 159.765625 Z M 148.066406 152.234375 C 148.039062 152.453125 148.027344 152.679688 148.027344 152.910156 L 139.574219 155.496094 Z M 150.871094 148.238281 C 150.675781 148.246094 150.527344 148.253906 150.457031 148.261719 C 149.226562 148.382812 148.320312 149.835938 148.144531 151.738281 C 148.109375 151.886719 148.089844 152.042969 148.066406 152.199219 L 140.050781 154.855469 L 148.113281 151.710938 C 148.132812 151.523438 148.15625 151.335938 148.1875 151.15625 C 146.03125 151.941406 142.988281 153.058594 141.664062 153.539062 C 140.65625 152.917969 139.363281 152.664062 138.085938 152.792969 C 135.554688 153.046875 134.105469 155.121094 134.367188 157.769531 C 134.628906 160.417969 136.785156 162.492188 139.316406 162.242188 C 140.847656 162.089844 142.148438 160.953125 142.875 159.488281 C 144.210938 159.074219 147.847656 157.898438 150.039062 157.191406 C 150.132812 157.261719 150.230469 157.324219 150.328125 157.378906 C 150.242188 157.320312 150.15625 157.253906 150.070312 157.179688 C 150.078125 157.179688 150.082031 157.175781 150.085938 157.175781 C 150.027344 157.132812 149.96875 157.082031 149.914062 157.03125 C 149.660156 156.789062 149.421875 156.484375 149.214844 156.132812 C 149.316406 156.222656 149.421875 156.296875 149.53125 156.359375 C 149.1875 156.125 148.886719 155.742188 148.65625 155.257812 C 148.484375 154.863281 148.351562 154.425781 148.253906 153.964844 C 148.21875 153.75 148.1875 153.53125 148.175781 153.300781 C 148.070312 151.359375 148.914062 149.6875 150.066406 149.574219 C 150.332031 149.546875 150.589844 149.609375 150.832031 149.738281 C 151.566406 150.234375 152.121094 151.394531 152.199219 152.800781 C 152.304688 154.746094 151.457031 156.414062 150.308594 156.53125 C 150.546875 156.503906 150.65625 156.519531 151.023438 156.480469 C 152.167969 156.367188 153.007812 154.710938 152.902344 152.777344 C 152.800781 150.964844 151.90625 149.554688 150.855469 149.480469 C 150.785156 149.472656 150.230469 149.453125 149.960938 149.484375 C 149.964844 149.484375 149.96875 149.484375 149.96875 149.484375 C 149.957031 149.488281 149.9375 149.488281 149.925781 149.488281 C 149.410156 149.539062 148.957031 149.902344 148.621094 150.460938 C 149.019531 149.277344 149.75 148.464844 150.652344 148.375 C 150.980469 148.34375 151.304688 148.414062 151.613281 148.5625 C 151.648438 148.578125 151.6875 148.597656 151.71875 148.617188 C 152.71875 149.285156 153.511719 150.8125 153.695312 152.65625 C 153.949219 155.234375 152.910156 157.449219 151.378906 157.605469 C 151.429688 157.597656 151.578125 157.589844 151.796875 157.582031 L 153.691406 176.753906 C 153.097656 177.949219 152.777344 179.539062 152.871094 181.246094 C 152.984375 183.289062 153.660156 185.042969 154.617188 186.105469 L 154.949219 189.472656 L 154.714844 186.210938 C 154.972656 186.476562 155.25 186.695312 155.539062 186.855469 C 154.242188 185.964844 153.261719 183.898438 153.125 181.402344 C 152.933594 177.933594 154.445312 174.957031 156.5 174.753906 C 156.929688 174.710938 157.34375 174.800781 157.742188 174.988281 C 159.089844 175.820312 160.121094 177.972656 160.261719 180.582031 C 160.328125 181.796875 160.191406 182.945312 159.902344 183.9375 C 159.335938 185.753906 158.246094 187.027344 156.929688 187.160156 C 157.355469 187.117188 159.292969 187.066406 159.949219 187.003906 C 161.984375 186.800781 163.492188 183.882812 163.304688 180.433594 C 163.125 177.203125 161.535156 174.730469 159.652344 174.59375 C 159.53125 174.585938 156.535156 174.589844 156.507812 174.589844 C 156.417969 174.585938 156.332031 174.589844 156.242188 174.597656 C 155.363281 174.683594 154.589844 175.28125 154 176.207031 L 152.660156 157.554688 C 154.152344 157.507812 156.433594 157.441406 156.769531 157.410156 C 158.292969 157.257812 159.324219 155.054688 159.070312 152.492188 C 158.832031 150.085938 157.550781 148.21875 156.136719 148.117188 C 156.074219 148.113281 153.667969 148.15625 151.992188 148.203125 L 151.910156 147.054688 L 183.398438 133.304688 L 150.675781 146.269531 Z M 176.304688 162.964844 C 176.285156 162.964844 176.261719 162.964844 176.242188 162.964844 C 176.269531 162.964844 176.296875 162.964844 176.320312 162.96875 C 176.320312 162.96875 176.308594 162.96875 176.304688 162.964844 Z M 173.316406 161.65625 C 173.328125 161.65625 173.339844 161.65625 173.355469 161.65625 C 175.828125 161.410156 177.640625 157.714844 177.40625 153.402344 C 177.171875 149.09375 174.976562 145.796875 172.503906 146.042969 C 171.78125 146.113281 171.113281 146.480469 170.542969 147.070312 C 171.070312 146.589844 171.664062 146.289062 172.304688 146.226562 C 174.753906 145.984375 176.925781 149.246094 177.15625 153.515625 C 177.386719 157.683594 175.675781 161.269531 173.316406 161.65625 Z M 179.613281 188.164062 C 179.605469 188.164062 179.59375 188.164062 179.585938 188.164062 C 179.554688 188.160156 179.519531 188.160156 179.488281 188.160156 C 179.53125 188.160156 179.574219 188.160156 179.613281 188.164062 Z M 175.886719 165.46875 C 175.863281 165.464844 175.652344 165.457031 175.546875 165.46875 L 175.554688 165.46875 C 175.546875 165.472656 175.542969 165.472656 175.535156 165.472656 C 175.101562 165.515625 174.78125 166.144531 174.820312 166.878906 C 174.851562 167.441406 175.085938 167.902344 175.386719 168.066406 C 175.113281 167.878906 174.902344 167.441406 174.875 166.914062 C 174.835938 166.175781 175.15625 165.546875 175.589844 165.503906 C 175.691406 165.492188 175.785156 165.515625 175.878906 165.566406 C 176.15625 165.75 176.367188 166.191406 176.394531 166.722656 C 176.4375 167.457031 176.117188 168.089844 175.683594 168.132812 C 175.773438 168.125 175.8125 168.128906 175.953125 168.113281 C 176.382812 168.070312 176.703125 167.445312 176.660156 166.714844 C 176.625 166.027344 176.285156 165.496094 175.886719 165.46875 Z M 176.289062 163.027344 C 176.300781 163.027344 176.3125 163.027344 176.320312 163.03125 C 176.324219 163.03125 176.328125 163.035156 176.332031 163.035156 C 176.320312 163.03125 176.304688 163.027344 176.289062 163.027344 Z M 176.84375 162.988281 C 176.765625 162.980469 176.175781 162.957031 175.886719 162.992188 C 175.890625 162.992188 175.898438 162.992188 175.902344 162.992188 C 175.882812 162.992188 175.867188 162.992188 175.851562 162.996094 C 174.621094 163.117188 173.722656 164.898438 173.835938 166.96875 C 173.917969 168.554688 174.578125 169.855469 175.429688 170.320312 C 174.652344 169.789062 174.066406 168.554688 173.988281 167.0625 C 173.871094 164.988281 174.773438 163.210938 176.003906 163.085938 C 176.285156 163.058594 176.558594 163.125 176.816406 163.261719 C 177.601562 163.789062 178.195312 165.027344 178.277344 166.527344 C 178.386719 168.601562 177.488281 170.378906 176.257812 170.503906 C 176.515625 170.476562 176.632812 170.492188 177.023438 170.453125 C 178.242188 170.332031 179.136719 168.5625 179.023438 166.5 C 178.917969 164.570312 177.964844 163.066406 176.84375 162.988281 Z M 173.320312 145.570312 C 173.34375 145.574219 173.367188 145.578125 173.382812 145.585938 C 173.394531 145.585938 173.40625 145.589844 173.414062 145.59375 C 173.382812 145.585938 173.351562 145.578125 173.320312 145.570312 Z M 171.292969 148.34375 C 171.300781 148.34375 171.304688 148.347656 171.3125 148.351562 C 171.292969 148.34375 171.269531 148.339844 171.246094 148.335938 C 171.265625 148.339844 171.28125 148.339844 171.292969 148.34375 Z M 174.5625 145.484375 C 174.394531 145.46875 173.0625 145.414062 172.40625 145.496094 C 172.417969 145.496094 172.429688 145.496094 172.441406 145.496094 C 172.402344 145.496094 172.363281 145.496094 172.324219 145.5 C 170.457031 145.6875 168.921875 147.582031 168.203125 150.230469 C 167.621094 151.359375 167.304688 152.882812 167.394531 154.523438 C 167.484375 156.179688 167.972656 157.632812 168.683594 158.636719 C 169.335938 160.226562 170.28125 161.441406 171.375 162.046875 C 170.515625 161.457031 169.765625 160.484375 169.199219 159.25 C 169.417969 159.46875 169.652344 159.648438 169.898438 159.78125 C 168.675781 158.945312 167.761719 157.003906 167.632812 154.667969 C 167.453125 151.414062 168.871094 148.625 170.792969 148.429688 C 171.238281 148.386719 171.667969 148.488281 172.074219 148.707031 C 173.304688 149.53125 174.230469 151.476562 174.359375 153.832031 C 174.539062 157.082031 173.121094 159.875 171.199219 160.066406 C 171.597656 160.027344 171.777344 160.046875 172.394531 159.984375 C 174.304688 159.796875 175.714844 157.019531 175.539062 153.789062 C 175.371094 150.757812 173.871094 148.398438 172.109375 148.273438 C 171.996094 148.265625 171.066406 148.226562 170.613281 148.28125 C 170.621094 148.28125 170.628906 148.28125 170.636719 148.285156 C 170.609375 148.285156 170.582031 148.285156 170.554688 148.285156 C 169.988281 148.34375 169.460938 148.632812 169.011719 149.089844 C 169.828125 147.167969 171.132812 145.863281 172.667969 145.710938 C 173.300781 145.648438 173.917969 145.789062 174.496094 146.097656 C 176.277344 147.28125 177.613281 150.085938 177.800781 153.480469 C 178.054688 158.160156 176.019531 162.179688 173.25 162.453125 C 173.828125 162.398438 174.085938 162.429688 174.972656 162.339844 C 177.722656 162.066406 179.75 158.074219 179.496094 153.417969 C 179.257812 149.058594 177.101562 145.664062 174.5625 145.484375 Z M 149.765625 154.304688 C 149.851562 154.296875 149.890625 154.300781 150.019531 154.289062 C 150.425781 154.25 150.722656 153.660156 150.683594 152.976562 C 150.648438 152.332031 150.332031 151.835938 149.960938 151.808594 C 149.933594 151.804688 149.738281 151.796875 149.640625 151.808594 C 149.640625 151.808594 149.644531 151.808594 149.648438 151.808594 C 149.648438 151.808594 149.632812 151.808594 149.628906 151.808594 C 149.222656 151.847656 148.921875 152.441406 148.957031 153.132812 C 148.988281 153.660156 149.207031 154.089844 149.488281 154.246094 C 149.230469 154.066406 149.035156 153.65625 149.007812 153.164062 C 148.972656 152.472656 149.273438 151.882812 149.679688 151.839844 C 149.773438 151.832031 149.863281 151.851562 149.949219 151.898438 C 150.210938 152.074219 150.40625 152.484375 150.4375 152.984375 C 150.472656 153.671875 150.171875 154.265625 149.765625 154.304688 Z M 183.765625 219.273438 L 171.464844 219.78125 L 183.621094 218.175781 L 171.054688 218.863281 L 180.316406 217.308594 L 171.425781 217.753906 L 177.933594 216.511719 L 171.8125 216.769531 C 170.957031 217.484375 170.457031 218.75 170.59375 220.136719 C 170.71875 221.410156 171.355469 222.480469 172.21875 223.058594 L 173.53125 220.324219 L 181.03125 219.65625 Z M 170.289062 156.34375 C 170.433594 156.332031 170.496094 156.339844 170.714844 156.320312 C 171.390625 156.25 171.890625 155.265625 171.828125 154.121094 C 171.769531 153.046875 171.238281 152.210938 170.613281 152.164062 C 170.574219 152.160156 170.246094 152.148438 170.085938 152.167969 C 170.085938 152.167969 170.089844 152.167969 170.09375 152.167969 C 170.082031 152.167969 170.074219 152.167969 170.0625 152.167969 C 169.382812 152.238281 168.878906 153.230469 168.941406 154.378906 C 168.988281 155.265625 169.355469 155.984375 169.828125 156.246094 C 169.394531 155.949219 169.070312 155.261719 169.027344 154.433594 C 168.964844 153.28125 169.464844 152.289062 170.148438 152.222656 C 170.304688 152.207031 170.457031 152.242188 170.601562 152.320312 C 171.039062 152.613281 171.367188 153.300781 171.414062 154.136719 C 171.472656 155.289062 170.972656 156.277344 170.289062 156.34375 Z M 171.292969 148.246094 C 171.285156 148.246094 171.273438 148.242188 171.265625 148.242188 C 171.234375 148.242188 171.207031 148.242188 171.171875 148.242188 C 171.214844 148.242188 171.253906 148.242188 171.292969 148.246094 Z M 162.953125 174.539062 L 160.472656 149.464844 L 179.109375 142.082031 L 181.917969 170.460938 Z M 160.03125 148.949219 L 162.742188 176.328125 L 183.894531 172.308594 L 180.769531 140.730469 Z M 150.363281 149.460938 C 150.363281 149.460938 150.355469 149.460938 150.351562 149.460938 C 150.332031 149.460938 150.3125 149.460938 150.292969 149.460938 C 150.316406 149.460938 150.34375 149.460938 150.363281 149.460938 Z M 166.308594 166.65625 C 166.234375 165.269531 165.507812 164.210938 164.6875 164.292969 C 163.867188 164.371094 163.265625 165.5625 163.339844 166.953125 C 163.414062 168.339844 164.140625 169.402344 164.960938 169.320312 C 165.78125 169.238281 166.386719 168.046875 166.308594 166.65625 Z M 173.789062 145.238281 C 173.746094 145.234375 173.699219 145.234375 173.65625 145.234375 C 173.714844 145.238281 173.773438 145.238281 173.832031 145.242188 C 173.816406 145.238281 173.800781 145.238281 173.789062 145.238281 Z M 185.296875 213.203125 C 181.050781 213.625 177.207031 214.089844 174.359375 214.515625 C 174.402344 214.058594 179.238281 213.210938 185.238281 212.613281 C 191.242188 212.019531 196.148438 211.898438 196.277344 212.339844 C 193.402344 212.484375 189.539062 212.78125 185.296875 213.203125 Z M 188.253906 221.28125 C 187.207031 221.382812 186.253906 220.472656 186.039062 219.21875 C 186.234375 220.296875 187.058594 221.074219 187.960938 220.984375 C 188.925781 220.886719 189.609375 219.84375 189.492188 218.652344 C 189.371094 217.457031 188.496094 216.570312 187.53125 216.664062 C 186.632812 216.753906 185.976562 217.679688 185.992188 218.773438 C 185.960938 217.5 186.714844 216.417969 187.761719 216.316406 C 188.867188 216.207031 189.875 217.230469 190.007812 218.601562 C 190.144531 219.96875 189.355469 221.171875 188.253906 221.28125 Z M 177.269531 209.089844 L 175.617188 212.519531 C 175.441406 212.550781 175.269531 212.578125 175.105469 212.605469 Z M 176.378906 212.398438 C 176.125 212.4375 175.890625 212.476562 175.664062 212.511719 L 177.894531 208.878906 Z M 177.300781 212.257812 C 177.007812 212.300781 176.722656 212.34375 176.449219 212.386719 L 178.660156 208.65625 Z M 178.375 212.105469 C 178.03125 212.152344 177.703125 212.199219 177.386719 212.246094 L 179.390625 208.613281 Z M 179.433594 211.960938 C 179.101562 212.007812 178.777344 212.050781 178.464844 212.09375 L 180.109375 208.515625 Z M 180.65625 211.804688 C 180.277344 211.851562 179.910156 211.898438 179.554688 211.945312 L 180.867188 208.5 Z M 181.800781 211.660156 C 181.460938 211.703125 181.136719 211.742188 180.816406 211.785156 L 181.671875 208.359375 Z M 182.585938 208.277344 L 183.007812 211.515625 C 182.667969 211.554688 182.335938 211.597656 182.011719 211.636719 Z M 183.820312 208.175781 L 184.339844 211.363281 C 183.976562 211.402344 183.613281 211.445312 183.261719 211.484375 Z M 185.046875 208.011719 L 185.636719 211.214844 C 185.28125 211.253906 184.933594 211.292969 184.589844 211.332031 Z M 186.410156 207.898438 L 187.113281 211.054688 C 186.710938 211.097656 186.3125 211.140625 185.917969 211.183594 Z M 187.734375 207.796875 L 188.648438 210.894531 C 188.222656 210.9375 187.804688 210.980469 187.390625 211.027344 Z M 183.800781 222.855469 C 184.953125 222.78125 185.949219 222.710938 186.605469 222.664062 C 185.945312 222.710938 184.949219 222.78125 183.800781 222.855469 Z M 179.414062 188.277344 C 179.421875 188.28125 179.429688 188.285156 179.4375 188.285156 C 179.414062 188.277344 179.390625 188.273438 179.367188 188.269531 C 179.382812 188.273438 179.402344 188.273438 179.414062 188.277344 Z M 174.265625 191.445312 C 174.265625 191.445312 174.269531 191.449219 174.277344 191.449219 C 174.261719 191.445312 174.25 191.445312 174.238281 191.441406 C 174.246094 191.441406 174.257812 191.445312 174.265625 191.445312 Z M 172.351562 196.648438 C 172.347656 196.648438 172.347656 196.648438 172.347656 196.644531 L 172.339844 196.652344 C 172.300781 196.539062 172.269531 196.417969 172.238281 196.296875 L 172.242188 196.292969 C 172.242188 196.289062 172.238281 196.285156 172.238281 196.28125 L 172.234375 196.285156 C 172.1875 196.097656 172.148438 195.90625 172.121094 195.707031 C 172.179688 196.035156 172.253906 196.351562 172.351562 196.648438 Z M 172.417969 196.867188 C 172.394531 196.796875 172.367188 196.734375 172.339844 196.664062 L 172.351562 196.65625 C 172.371094 196.726562 172.394531 196.796875 172.417969 196.867188 Z M 158.273438 206.269531 L 172.253906 196.726562 C 172.300781 196.851562 172.351562 196.976562 172.40625 197.097656 Z M 159.695312 208.3125 C 159.058594 208.746094 158.070312 208.410156 157.492188 207.558594 C 156.914062 206.707031 156.964844 205.664062 157.601562 205.230469 C 157.773438 205.113281 157.972656 205.058594 158.179688 205.046875 C 157.980469 205.179688 157.863281 205.261719 157.855469 205.265625 C 157.261719 205.667969 157.21875 206.636719 157.753906 207.425781 C 158.289062 208.210938 159.203125 208.523438 159.792969 208.121094 C 159.792969 208.121094 159.867188 208.074219 159.984375 207.996094 C 159.910156 208.117188 159.816406 208.226562 159.695312 208.3125 Z M 172.140625 196.367188 C 172.171875 196.484375 172.207031 196.601562 172.246094 196.710938 L 158.335938 205.855469 Z M 172.074219 196.125 C 172.09375 196.199219 172.113281 196.273438 172.132812 196.351562 L 158.464844 205.4375 Z M 147.59375 212.285156 L 156.214844 206.867188 C 156.246094 207.042969 156.296875 207.21875 156.363281 207.394531 Z M 156.167969 206.265625 C 156.160156 206.453125 156.175781 206.652344 156.210938 206.851562 L 147.914062 211.511719 Z M 210.488281 215.953125 C 210.304688 214.113281 208.972656 212.699219 207.359375 212.476562 L 207.09375 209.796875 L 207.078125 209.796875 C 207.082031 209.789062 207.089844 209.777344 207.089844 209.769531 C 207.082031 209.675781 206.617188 209.632812 205.789062 209.628906 C 205.296875 208.988281 202.941406 206.242188 202.933594 206.171875 C 202.917969 206.03125 199.019531 205.910156 193.695312 206.25 L 193.207031 201.15625 C 193.433594 201.132812 193.597656 201.117188 193.675781 201.109375 C 196.347656 200.84375 198.1875 197.296875 197.742188 192.796875 C 197.429688 189.6875 196.136719 187.167969 194.484375 185.984375 L 210.238281 182.964844 L 188.429688 184.175781 L 155.054688 190.515625 L 176.4375 189.117188 C 176.3125 189.417969 176.199219 189.734375 176.105469 190.066406 C 175.3125 190.117188 174.585938 190.164062 174.355469 190.183594 C 173.117188 190.308594 172.203125 191.777344 172.03125 193.699219 C 171.941406 194.144531 171.90625 194.632812 171.933594 195.136719 C 171.945312 195.378906 171.976562 195.613281 172.015625 195.835938 C 168.488281 198.164062 160.941406 203.203125 158.578125 204.78125 C 157.980469 204.53125 157.355469 204.539062 156.875 204.863281 C 156.554688 205.082031 156.34375 205.410156 156.242188 205.796875 C 154.191406 206.90625 147.921875 210.53125 147.773438 210.628906 C 146.757812 211.320312 146.683594 212.980469 147.601562 214.332031 C 148.367188 215.457031 149.582031 216.015625 150.550781 215.773438 C 150.820312 215.726562 151.113281 215.625 151.414062 215.4375 C 151.539062 215.363281 151.648438 215.277344 151.746094 215.1875 C 151.886719 215.058594 156.96875 210.800781 158.710938 209.378906 C 159.09375 209.414062 159.457031 209.335938 159.769531 209.125 C 160.222656 208.816406 160.453125 208.28125 160.46875 207.675781 C 162.871094 206.09375 171.046875 200.710938 173.734375 198.957031 C 173.894531 199.09375 174.054688 199.210938 174.226562 199.300781 C 173.808594 199.023438 173.421875 198.59375 173.105469 198.046875 C 173.210938 198.140625 173.316406 198.21875 173.429688 198.28125 C 173.285156 198.183594 173.152344 198.054688 173.023438 197.910156 C 172.625 197.175781 172.339844 196.257812 172.238281 195.246094 C 172.171875 194.574219 172.195312 193.925781 172.289062 193.335938 C 172.605469 192.304688 173.21875 191.574219 173.964844 191.5 C 174.230469 191.472656 174.488281 191.53125 174.726562 191.660156 C 175.464844 192.15625 176.019531 193.316406 176.097656 194.726562 C 176.203125 196.671875 175.355469 198.339844 174.207031 198.453125 C 174.445312 198.429688 174.554688 198.441406 174.921875 198.402344 C 176.066406 198.292969 176.90625 196.632812 176.800781 194.699219 C 176.703125 192.886719 175.808594 191.476562 174.753906 191.402344 C 174.683594 191.398438 174.128906 191.375 173.855469 191.410156 C 173.859375 191.410156 173.867188 191.410156 173.867188 191.410156 C 173.855469 191.410156 173.839844 191.410156 173.820312 191.414062 C 173.308594 191.460938 172.855469 191.824219 172.519531 192.382812 C 172.917969 191.203125 173.644531 190.390625 174.550781 190.296875 C 174.90625 190.265625 175.253906 190.34375 175.582031 190.515625 C 176.597656 191.171875 177.410156 192.714844 177.59375 194.582031 C 177.847656 197.160156 176.8125 199.375 175.28125 199.527344 C 175.429688 199.511719 176.234375 199.449219 177.089844 199.386719 C 177.757812 200.617188 178.609375 201.554688 179.550781 202.054688 C 178.769531 201.539062 178.058594 200.714844 177.480469 199.679688 C 177.753906 199.945312 178.039062 200.164062 178.34375 200.316406 C 177.980469 200.085938 177.640625 199.761719 177.332031 199.367188 C 178.207031 199.300781 179.078125 199.234375 179.3125 199.210938 C 180.835938 199.0625 181.863281 196.859375 181.609375 194.296875 C 181.375 191.890625 180.09375 190.019531 178.679688 189.921875 C 178.632812 189.917969 177.726562 189.96875 176.75 190.027344 C 177.296875 189.105469 178.039062 188.503906 178.894531 188.386719 C 179.359375 188.328125 179.816406 188.417969 180.246094 188.628906 C 181.566406 189.453125 182.605469 191.460938 182.820312 193.925781 C 183.117188 197.328125 181.726562 200.304688 179.71875 200.574219 C 180.136719 200.515625 180.328125 200.53125 180.96875 200.445312 C 182.96875 200.183594 184.347656 197.222656 184.050781 193.839844 C 183.773438 190.667969 182.121094 188.246094 180.269531 188.175781 C 180.148438 188.171875 179.175781 188.164062 178.699219 188.234375 C 178.707031 188.238281 178.714844 188.238281 178.722656 188.238281 C 178.695312 188.238281 178.667969 188.238281 178.640625 188.242188 C 177.863281 188.347656 177.179688 188.859375 176.648438 189.640625 C 177.359375 187.71875 178.597656 186.410156 180.121094 186.257812 C 180.738281 186.195312 181.351562 186.335938 181.933594 186.636719 C 183.710938 187.789062 185.132812 190.496094 185.457031 193.769531 C 185.902344 198.296875 184.085938 202.183594 181.394531 202.449219 C 181.609375 202.429688 183.289062 202.246094 185.347656 202.019531 C 185.601562 201.769531 188.25 199.253906 191.40625 198.976562 C 192.359375 198.941406 193.074219 199.574219 193.113281 200.234375 L 193.136719 200.472656 C 193.097656 199.8125 192.433594 199.6875 191.480469 199.71875 C 188.15625 200.011719 185.320312 202.042969 185.320312 202.042969 L 185.800781 207.035156 C 180.511719 207.75 176.714844 208.636719 176.726562 208.773438 C 176.730469 208.832031 175.4375 211.15625 174.835938 212.28125 L 176.847656 209.015625 L 175.070312 212.613281 C 174.933594 212.636719 174.804688 212.660156 174.683594 212.683594 L 174.621094 212.6875 C 174.621094 212.691406 174.621094 212.691406 174.617188 212.695312 C 173.609375 212.886719 173.046875 213.042969 173.058594 213.152344 C 173.058594 213.160156 173.066406 213.167969 173.078125 213.175781 L 173.058594 213.175781 L 173.355469 216.160156 C 173.285156 216.164062 173.226562 216.171875 173.1875 216.175781 C 172.742188 216.21875 172.332031 216.390625 171.972656 216.648438 L 176.800781 215.90625 L 176.785156 215.90625 C 180.566406 215.632812 185.992188 215.253906 186.652344 215.1875 C 185 215.351562 183.824219 217.144531 184.027344 219.195312 C 184.226562 221.242188 185.734375 222.769531 187.386719 222.605469 C 187.269531 222.617188 187.015625 222.636719 186.65625 222.664062 C 185.371094 222.503906 184.910156 221.988281 184.910156 221.988281 L 183.25 222.046875 L 182.914062 221.476562 L 184.34375 221.085938 L 182.765625 221.222656 L 182.390625 220.585938 L 183.988281 220.285156 L 182.253906 220.347656 L 181.804688 219.585938 L 181.351562 220.503906 L 180.914062 221.378906 L 180.796875 221.621094 L 180.53125 222.148438 L 180.347656 222.515625 L 177.734375 227.769531 L 181.179688 227.769531 L 182.546875 225.160156 L 182.371094 227.769531 L 191.40625 227.769531 L 192.121094 221.179688 L 197.367188 220.660156 C 197.824219 220.613281 198.101562 219.613281 197.980469 218.421875 C 197.945312 218.027344 197.867188 217.667969 197.765625 217.359375 C 197.894531 217.34375 198.019531 217.328125 198.148438 217.316406 C 198.125 215.410156 199.34375 213.777344 201.054688 213.425781 C 201.164062 213.402344 201.28125 213.386719 201.398438 213.375 C 201.515625 213.359375 201.632812 213.355469 201.753906 213.355469 C 201.792969 213.355469 201.832031 213.359375 201.871094 213.363281 C 201.949219 213.367188 202.023438 213.371094 202.101562 213.378906 C 202.148438 213.386719 202.195312 213.394531 202.242188 213.398438 C 202.308594 213.410156 202.375 213.421875 202.4375 213.433594 C 202.488281 213.445312 202.542969 213.460938 202.59375 213.472656 C 202.648438 213.488281 202.707031 213.503906 202.765625 213.523438 C 202.820312 213.542969 202.875 213.558594 202.925781 213.578125 C 202.976562 213.601562 203.027344 213.621094 203.078125 213.640625 C 203.136719 213.667969 203.191406 213.691406 203.246094 213.71875 C 203.289062 213.742188 203.332031 213.761719 203.375 213.789062 C 203.433594 213.820312 203.496094 213.855469 203.550781 213.886719 C 203.582031 213.910156 203.617188 213.933594 203.648438 213.953125 C 203.714844 213.996094 203.777344 214.039062 203.835938 214.085938 C 203.851562 214.097656 203.867188 214.109375 203.882812 214.121094 C 204.382812 214.515625 204.792969 215.042969 205.066406 215.660156 C 205.066406 215.664062 205.066406 215.664062 205.070312 215.667969 C 205.113281 215.769531 205.15625 215.878906 205.191406 215.988281 C 205.195312 215.988281 205.195312 215.992188 205.195312 215.996094 C 205.234375 216.105469 205.265625 216.214844 205.296875 216.328125 C 205.351562 216.539062 205.390625 216.753906 205.414062 216.976562 C 205.628906 219.164062 204.183594 221.097656 202.179688 221.296875 C 202.632812 221.25 203.515625 221.070312 204.453125 220.863281 C 204.382812 220.894531 204.335938 220.914062 204.335938 220.914062 L 211.464844 227.769531 L 212.941406 227.769531 L 205.140625 220.390625 C 205.664062 219.921875 206.285156 219.074219 206.511719 217.601562 C 206.511719 217.605469 206.515625 217.609375 206.519531 217.613281 C 206.523438 217.617188 206.527344 217.625 206.53125 217.628906 C 206.535156 217.632812 206.542969 217.636719 206.546875 217.644531 C 206.554688 217.652344 206.566406 217.660156 206.574219 217.667969 C 206.582031 217.679688 206.589844 217.6875 206.601562 217.699219 C 206.613281 217.710938 206.628906 217.726562 206.644531 217.742188 C 206.648438 217.746094 206.648438 217.746094 206.652344 217.75 C 206.695312 217.792969 206.75 217.847656 206.8125 217.910156 C 206.820312 217.921875 206.832031 217.933594 206.84375 217.945312 C 206.871094 217.972656 206.898438 218 206.929688 218.03125 C 206.929688 218.035156 206.933594 218.039062 206.9375 218.039062 C 208.121094 219.246094 211.679688 222.859375 216.523438 227.769531 L 220.277344 227.769531 L 210.351562 217.484375 C 210.488281 217.003906 210.539062 216.484375 210.488281 215.953125 Z M 165.882812 158.515625 C 165.867188 158.519531 165.851562 158.523438 165.832031 158.523438 C 165.839844 158.523438 165.84375 158.523438 165.84375 158.523438 C 165.941406 158.515625 166.460938 158.492188 166.625 158.484375 C 166.722656 158.484375 166.828125 158.445312 166.929688 158.351562 C 167.328125 158 166.703125 157.09375 166.703125 157.09375 L 164.242188 153.386719 C 164.242188 153.386719 163.960938 152.9375 163.496094 152.988281 C 163.386719 153.003906 162.789062 153.023438 162.742188 153.027344 C 162.734375 153.027344 162.726562 153.027344 162.722656 153.027344 C 163.167969 152.996094 163.445312 153.429688 163.445312 153.429688 L 165.902344 157.132812 C 165.902344 157.132812 166.527344 158.042969 166.132812 158.394531 C 166.050781 158.464844 165.96875 158.503906 165.890625 158.515625 C 165.863281 158.515625 165.640625 158.507812 165.480469 158.347656 C 164.722656 157.574219 162.261719 154.609375 162.261719 154.609375 C 162.195312 154.480469 161.53125 153.914062 162.289062 153.234375 C 162.355469 153.175781 162.417969 153.128906 162.480469 153.09375 C 162.382812 153.136719 162.28125 153.199219 162.171875 153.296875 C 161.40625 153.980469 162.019531 154.59375 162.085938 154.726562 L 165.207031 158.15625 C 165.207031 158.15625 165.519531 158.582031 165.882812 158.515625 Z M 203.4375 217.171875 C 203.304688 215.847656 202.214844 214.867188 201.003906 214.988281 C 199.789062 215.109375 198.914062 216.28125 199.046875 217.605469 C 199.175781 218.933594 200.265625 219.910156 201.480469 219.789062 C 202.691406 219.667969 203.566406 218.496094 203.4375 217.171875 Z M 166.882812 160.648438 C 166.875 160.648438 166.867188 160.648438 166.867188 160.648438 C 166.828125 160.644531 166.796875 160.648438 166.765625 160.648438 C 166.804688 160.648438 166.84375 160.648438 166.882812 160.648438 Z M 166.539062 160.875 C 166.554688 160.878906 166.574219 160.882812 166.582031 160.882812 C 166.589844 160.886719 166.59375 160.886719 166.601562 160.890625 C 166.582031 160.882812 166.558594 160.878906 166.539062 160.875 Z M 165.160156 162.761719 C 165.164062 162.761719 165.167969 162.761719 165.175781 162.765625 C 165.15625 162.761719 165.144531 162.757812 165.128906 162.753906 C 165.140625 162.753906 165.152344 162.757812 165.160156 162.761719 Z M 167.382812 160.8125 C 167.269531 160.804688 166.363281 160.769531 165.917969 160.820312 C 165.925781 160.820312 165.933594 160.824219 165.941406 160.824219 C 165.914062 160.824219 165.886719 160.824219 165.863281 160.828125 C 164.589844 160.953125 163.550781 162.238281 163.058594 164.039062 C 162.664062 164.808594 162.445312 165.84375 162.507812 166.960938 C 162.570312 168.089844 162.902344 169.078125 163.382812 169.761719 C 163.828125 170.84375 164.472656 171.667969 165.214844 172.078125 C 164.632812 171.675781 164.121094 171.015625 163.734375 170.179688 C 163.886719 170.324219 164.042969 170.445312 164.210938 170.539062 C 163.378906 169.96875 162.757812 168.652344 162.671875 167.058594 C 162.550781 164.847656 163.511719 162.949219 164.820312 162.820312 C 165.121094 162.789062 165.414062 162.859375 165.691406 163.007812 C 166.527344 163.566406 167.15625 164.890625 167.246094 166.492188 C 167.367188 168.703125 166.402344 170.601562 165.09375 170.730469 C 165.367188 170.703125 165.492188 170.71875 165.910156 170.675781 C 167.207031 170.546875 168.164062 168.660156 168.046875 166.464844 C 167.933594 164.402344 166.914062 162.796875 165.714844 162.714844 C 165.636719 162.707031 165.007812 162.679688 164.699219 162.71875 C 164.699219 162.71875 164.710938 162.71875 164.714844 162.71875 C 164.695312 162.71875 164.675781 162.71875 164.660156 162.722656 C 164.273438 162.757812 163.917969 162.953125 163.613281 163.261719 C 164.167969 161.957031 165.054688 161.074219 166.09375 160.96875 C 166.527344 160.925781 166.949219 161.023438 167.347656 161.234375 C 168.550781 162.046875 169.460938 163.949219 169.585938 166.253906 C 169.761719 169.4375 168.371094 172.167969 166.492188 172.355469 C 166.882812 172.316406 167.058594 172.335938 167.660156 172.277344 C 169.535156 172.09375 170.910156 169.375 170.738281 166.210938 C 170.574219 163.246094 169.109375 160.9375 167.382812 160.8125 Z M 165.160156 162.691406 C 165.152344 162.691406 165.148438 162.691406 165.140625 162.691406 C 165.121094 162.691406 165.097656 162.691406 165.078125 162.691406 C 165.105469 162.691406 165.132812 162.691406 165.160156 162.691406 " fill-opacity="1" fill-rule="nonzero"/></g><g fill="#ffffff" fill-opacity="1"><g transform="translate(75.602776, 266.889988)"><g><path d="M 0.757812 -21.242188 L 0.757812 -17.261719 L 2.460938 -17.261719 L 2.460938 -4.011719 L 0.757812 -4.011719 L 0.757812 0 L 10.542969 0 L 10.542969 -4.011719 L 8.691406 -4.011719 L 8.691406 -8.722656 L 11 -8.722656 C 15.34375 -8.722656 18.992188 -10.726562 18.992188 -14.738281 C 18.992188 -18.203125 17.65625 -21.242188 10.605469 -21.242188 Z M 8.691406 -17.289062 L 10.210938 -17.289062 C 11.972656 -17.289062 13.035156 -16.316406 13.035156 -14.523438 C 13.035156 -12.914062 11.820312 -12.003906 10.058594 -12.003906 L 8.691406 -12.003906 Z M 8.691406 -17.289062 "/></g></g></g><g fill="#ffffff" fill-opacity="1"><g transform="translate(95.048707, 266.889988)"><g><path d="M 0.757812 -21.242188 L 0.757812 -17.230469 L 2.429688 -17.230469 L 2.429688 -4.011719 L 0.757812 -4.011719 L 0.757812 0 L 10.605469 0 L 10.605469 -4.011719 L 8.722656 -4.011719 L 8.722656 -8.597656 L 14.496094 -8.597656 L 14.496094 -4.011719 L 12.703125 -4.011719 L 12.703125 0 L 22.578125 0 L 22.578125 -4.011719 L 20.816406 -4.011719 L 20.816406 -17.230469 L 22.578125 -17.230469 L 22.578125 -21.242188 L 12.703125 -21.242188 L 12.703125 -17.230469 L 14.496094 -17.230469 L 14.496094 -12.640625 L 8.722656 -12.640625 L 8.722656 -17.230469 L 10.605469 -17.230469 L 10.605469 -21.242188 Z M 0.757812 -21.242188 "/></g></g></g><g fill="#ffffff" fill-opacity="1"><g transform="translate(118.383824, 266.889988)"><g><path d="M 0.757812 -21.242188 L 0.757812 -17.230469 L 2.675781 -17.230469 L 2.675781 -4.042969 L 0.757812 -4.042969 L 0.757812 0 L 10.847656 0 L 10.847656 -4.042969 L 8.964844 -4.042969 L 8.964844 -17.230469 L 10.847656 -17.230469 L 10.847656 -21.242188 Z M 0.757812 -21.242188 "/></g></g></g><g fill="#ffffff" fill-opacity="1"><g transform="translate(129.990614, 266.889988)"><g><path d="M 21.96875 -15.890625 L 21.96875 -3.949219 L 20.269531 -3.949219 L 20.269531 0 L 29.871094 0 L 29.871094 -3.949219 L 28.199219 -3.949219 L 28.199219 -17.320312 L 29.871094 -17.320312 L 29.871094 -21.242188 L 18.292969 -21.242188 L 15.375 -9.875 L 12.308594 -21.242188 L 0.789062 -21.242188 L 0.789062 -17.320312 L 2.402344 -17.320312 L 2.402344 -3.917969 L 0.757812 -3.917969 L 0.757812 0 L 8.996094 0 L 8.996094 -3.917969 L 7.261719 -3.917969 L 7.261719 -15.890625 L 7.382812 -15.890625 C 7.476562 -14.371094 7.871094 -12.640625 8.023438 -12.125 L 11.425781 0 L 17.777344 0 L 20.96875 -11.820312 C 21.179688 -12.519531 21.605469 -14.523438 21.847656 -15.890625 Z M 21.96875 -15.890625 "/></g></g></g><g fill="#ffffff" fill-opacity="1"><g transform="translate(160.617958, 266.889988)"><g><path d="M 0.757812 -21.242188 L 0.757812 -17.230469 L 2.644531 -17.230469 L 2.644531 -4.042969 L 0.757812 -4.042969 L 0.757812 0 L 12.0625 0 L 12.0625 -4.042969 L 8.964844 -4.042969 L 8.964844 -7.902344 L 14.738281 -7.902344 L 14.738281 -11.941406 L 8.964844 -11.941406 L 8.964844 -17.230469 L 13.550781 -17.230469 L 13.550781 -14.523438 L 18.929688 -14.523438 L 18.929688 -21.242188 Z M 0.757812 -21.242188 "/></g></g></g><g fill="#ffffff" fill-opacity="1"><g transform="translate(180.003121, 266.889988)"><g><path d="M 0.757812 -21.242188 L 0.757812 -17.261719 L 2.460938 -17.261719 L 2.460938 -4.011719 L 0.757812 -4.011719 L 0.757812 0 L 10.574219 0 L 10.574219 -4.011719 L 8.722656 -4.011719 L 8.722656 -8.722656 C 11.425781 -8.722656 11.757812 -8.050781 11.757812 -5.289062 C 11.757812 -1.730469 13.675781 0.363281 17.65625 0.363281 C 21.027344 0.363281 22.089844 -1.976562 22.089844 -4.496094 L 22.089844 -6.167969 L 20.054688 -6.167969 L 20.054688 -5.164062 C 20.054688 -4.558594 19.8125 -4.195312 19.355469 -4.195312 C 18.808594 -4.195312 18.628906 -4.953125 18.628906 -6.257812 C 18.628906 -8.449219 16.742188 -10.269531 14.648438 -10.574219 C 17.167969 -10.9375 19.050781 -12.609375 19.050781 -14.980469 C 19.050781 -18.445312 17.683594 -21.242188 10.636719 -21.242188 Z M 8.722656 -17.289062 L 10.242188 -17.289062 C 12.003906 -17.289062 13.003906 -16.378906 13.003906 -14.585938 C 13.003906 -12.976562 11.851562 -12.125 10.089844 -12.125 L 8.722656 -12.125 Z M 8.722656 -17.289062 "/></g></g></g><g fill="#ffffff" fill-opacity="1"><g transform="translate(202.396326, 266.889988)"><g><path d="M 0.757812 -21.242188 L 0.757812 -17.230469 L 2.675781 -17.230469 L 2.675781 -4.042969 L 0.757812 -4.042969 L 0.757812 0 L 19.082031 0 L 19.082031 -6.867188 L 13.824219 -6.867188 L 13.824219 -4.042969 L 8.964844 -4.042969 L 8.964844 -8.996094 L 14.738281 -8.996094 L 14.738281 -13.035156 L 8.964844 -13.035156 L 8.964844 -17.230469 L 13.824219 -17.230469 L 13.824219 -14.523438 L 19.082031 -14.523438 L 19.082031 -21.242188 Z M 0.757812 -21.242188 "/></g></g></g><g fill="#ffffff" fill-opacity="1"><g transform="translate(222.237255, 266.889988)"><g><path d="M 0.757812 -21.242188 L 0.757812 -17.230469 L 2.675781 -17.230469 L 2.675781 -4.042969 L 0.757812 -4.042969 L 0.757812 0 L 19.082031 0 L 19.082031 -6.867188 L 13.824219 -6.867188 L 13.824219 -4.042969 L 8.964844 -4.042969 L 8.964844 -8.996094 L 14.738281 -8.996094 L 14.738281 -13.035156 L 8.964844 -13.035156 L 8.964844 -17.230469 L 13.824219 -17.230469 L 13.824219 -14.523438 L 19.082031 -14.523438 L 19.082031 -21.242188 Z M 0.757812 -21.242188 "/></g></g></g><g fill="#ffffff" fill-opacity="1"><g transform="translate(242.078184, 266.889988)"><g><path d="M 0.457031 -3.160156 C 0.457031 -1.550781 1.882812 0.121094 3.890625 0.121094 C 6.167969 0.121094 7.382812 -1.335938 7.382812 -3.160156 C 7.382812 -4.710938 6.109375 -6.625 3.890625 -6.625 C 1.671875 -6.625 0.457031 -4.710938 0.457031 -3.160156 Z M 0.457031 -3.160156 "/></g></g></g><g fill="#ffffff" fill-opacity="1"><g transform="translate(249.917325, 266.889988)"><g><path d="M 24.035156 -17.320312 L 24.035156 -21.242188 L 14.890625 -21.242188 L 14.890625 -17.320312 L 16.957031 -17.320312 L 16.957031 -10.089844 L 9.511719 -21.242188 L 0.789062 -21.242188 L 0.789062 -17.320312 L 2.550781 -17.320312 L 2.550781 -3.917969 L 0.757812 -3.917969 L 0.757812 0 L 10.089844 0 L 10.089844 -3.917969 L 7.75 -3.917969 L 7.75 -11.578125 L 15.496094 0 L 22.03125 0 L 22.03125 -17.320312 Z M 24.035156 -17.320312 "/></g></g></g><g fill="#ffffff" fill-opacity="1"><g transform="translate(274.7109, 266.889988)"><g><path d="M 0.757812 -21.242188 L 0.757812 -17.230469 L 2.675781 -17.230469 L 2.675781 -4.042969 L 0.757812 -4.042969 L 0.757812 0 L 19.082031 0 L 19.082031 -6.867188 L 13.824219 -6.867188 L 13.824219 -4.042969 L 8.964844 -4.042969 L 8.964844 -8.996094 L 14.738281 -8.996094 L 14.738281 -13.035156 L 8.964844 -13.035156 L 8.964844 -17.230469 L 13.824219 -17.230469 L 13.824219 -14.523438 L 19.082031 -14.523438 L 19.082031 -21.242188 Z M 0.757812 -21.242188 "/></g></g></g><g fill="#ffffff" fill-opacity="1"><g transform="translate(294.55183, 266.889988)"><g><path d="M 20.84375 -21.242188 L 0.457031 -21.242188 L 0.457031 -13.339844 L 4.921875 -13.339844 L 4.921875 -17.230469 L 7.535156 -17.230469 L 7.535156 -4.042969 L 5.042969 -4.042969 L 5.042969 0 L 16.347656 0 L 16.347656 -4.042969 L 13.824219 -4.042969 L 13.824219 -17.230469 L 16.378906 -17.230469 L 16.378906 -13.339844 L 20.84375 -13.339844 Z M 20.84375 -21.242188 "/></g></g></g></svg>